<svg aria-hidden="true" style="position:absolute;width:0;height:0;overflow:hidden" xmlns="http://www.w3.org/2000/svg"><defs><symbol id="client1" viewBox="0 0 130 32"><path d="M58.884 15.478c4.094-1.351 4.836-4.767 4.827-7.55C63.703 3.679 60.685.003 51.752.003L35.078 0v31.934h16.631c8.987 0 12.293-4.586 12.293-9.18 0-5.563-5.118-7.276-5.118-7.276zM42.99 6.947l11.267.008c1.267.223 2.19 1.294 2.19 2.551 0 1.286-.989 2.496-2.295 2.673l-11.154.017-.008-5.249zm10.686 17.545H42.99v-5.347l10.973.003c1.362.156 2.394 1.282 2.394 2.619 0 1.457-1.221 2.702-2.681 2.725zM101.339.004h28.177l-.016 6.97h-20.332l.019 5.147h18.33v7.006h-18.33v5.57h20.335L129.518 32h-28.18V.004zM84.95.046H67.911V31.99h7.825V19.066l8.617-.01c2.468.038 4.387 2.047 4.387 4.525v8.381l7.659-.003-.015-10.31c0-4.776-4.641-6.187-4.641-6.187s4.745-1.412 4.745-7.058c0-6.908-5.973-8.359-11.537-8.359zm4.271 9.911c-.141 1.05-1.197 2.189-2.516 2.189l-10.997.004V7.035H86.71c1.313 0 2.343.962 2.51 2.225v.697zM30.003 24.271c-.113.003-10.696.206-14.349-.148-5.885-.573-7.969-4.906-7.969-8.442 0-4.409 3.024-7.654 7.709-8.264 2.229-.29 14.416-.153 14.545-.152l.256.003.026-7.264-.259.001L16.168.03c-1.536.093-4.082.247-6.689 1.307a16.341 16.341 0 0 0-6.312 5.072A15.808 15.808 0 0 0-.001 15.93c0 1.086.086 2.165.263 3.199.993 4.843 4.187 8.851 8.767 11.007 1.547.676 3.932 1.488 8.742 1.756l2.591.054 9.87.01.027-7.688-.257.003z"/></symbol><symbol id="client2" viewBox="0 0 78 32"><path d="M21.531 15.557c-1.528 4.65-5.266 7.27-10.319 7.27C4.927 22.827 0 17.84 0 11.456 0 5.158 4.926 0 10.999 0c5.648 0 11.084 4.65 11.042 12.385H3.652c.467 4.524 3.949 7.187 7.559 7.187 3.1 0 5.308-1.48 6.498-4.016h3.822zm-3.482-6.384c-.892-3.551-3.865-5.918-7.05-5.918-3.015 0-6.2 2.199-7.134 5.918h14.184zm16.69 13.654c-3.143 0-5.861-1.691-7.432-3.804V32h-3.61V.55h3.482v3.466C28.708 1.819 31.51 0 34.738 0c6.285 0 10.914 5.115 10.914 11.372 0 6.341-4.629 11.455-10.914 11.455zm0-19.529c-4.035 0-7.432 3.636-7.432 8.074 0 4.48 3.397 8.158 7.432 8.158 4.077 0 7.304-3.678 7.304-8.158 0-4.438-3.228-8.074-7.304-8.074zM47.224.55h3.61v21.77h-3.61V.55zm5.222 10.919c0-6.353 5.18-11.462 11.739-11.462s11.74 5.11 11.74 11.462c0 6.353-5.229 11.369-11.74 11.369s-11.739-5.017-11.739-11.37zm12.73-7.994c-5.976-.52-9.299 4.008-9.299 9.284 0 5.275 4.368 9.552 9.754 9.552a9.857 9.857 0 0 0 5.639-1.758l-1.352-3.427c1.397-1.449 2.204-3.451 2.204-5.663 0-4.372-3.067-7.627-6.946-7.99z"/><path d="m62.029 13.657 10.65 8.625h5.666L67.97 13.657z"/></symbol><symbol id="client3" viewBox="0 0 31 32"><path d="M29.545 0H.368a.365.365 0 0 0-.362.304.37.37 0 0 0 .235.41l26.39 8.64c.03.01.063.009.092-.003s.054-.034.069-.062l3.938-7.305a1.341 1.341 0 0 0-.029-1.329 1.348 1.348 0 0 0-1.156-.656zM.006 30.542a.356.356 0 0 0 .67.17l5.076-9.404a1.344 1.344 0 0 1 1.185-.707h12.951a1.352 1.352 0 0 0 1.185-.707l3.87-7.175a.11.11 0 0 0-.002-.106.108.108 0 0 0-.092-.052H1.353a1.35 1.35 0 0 0-1.346 1.346v16.636z"/></symbol><symbol id="client4" viewBox="0 0 32 32"><path d="M29.696 0H15.465C6.924 0 0 5.947 0 14.488v10.04C6.234 11.784 21.387 2.829 29.696 0z"/><path d="M1.525 32h12.612c8.541 0 15.465-6.924 15.465-15.465V.739C16.435 8.05 7.425 19.43 1.525 32z"/></symbol><symbol id="client5" viewBox="0 0 197 32"><path d="M10.194 11.141c0-.422-.143-.786-.43-1.092a1.408 1.408 0 0 0-1.067-.459c-1.338 0-2.729 1.425-4.173 4.274-1.337 2.575-2.007 4.621-2.007 6.14 0 1.372.467 2.058 1.401 2.058 1.316 0 2.633-1.33 3.95-3.988a29.106 29.106 0 0 0 2.103-5.76c.148-.591.223-.981.223-1.171zm3.854 7.976v.064a.248.248 0 0 0-.032.094c-.445 1.076-1.03 1.994-1.752 2.754-.913.929-1.869 1.393-2.867 1.393-1.147 0-1.72-.685-1.72-2.057 0-.358.031-.707.095-1.045-1.422 2.068-2.972 3.102-4.651 3.102-.998 0-1.783-.39-2.357-1.171C.255 21.575 0 20.721 0 19.687c0-2.11.924-4.441 2.771-6.995 1.975-2.701 3.982-4.051 6.021-4.051.871 0 1.603.38 2.198 1.14.169-.633.51-.95 1.02-.95.977 0 1.465.17 1.465.507 0 .064-.244.823-.733 2.278-1.891 5.634-2.835 8.874-2.835 9.718 0 .401.148.601.446.601.594 0 1.279-.538 2.054-1.614s1.173-1.614 1.195-1.614c.297 0 .446.138.446.412zM30.23 6.457c0-1.772-.43-3.043-1.289-3.813-.861-.77-2.162-1.145-3.903-1.124-1.359 0-2.039.296-2.039.886v9.02c.786.127 1.359.19 1.72.19 3.695-.02 5.532-1.74 5.511-5.159zm3.759 0c0 4.221-2.879 6.33-8.633 6.33-.744 0-1.529-.041-2.357-.126v5.634c0 1.983.351 3.123 1.051 3.419.042.021.499.158 1.37.412.509.126.753.296.733.506-.021.254-.192.38-.51.38h-8.664c-.318 0-.488-.126-.509-.38-.021-.21.223-.379.733-.506.87-.254 1.327-.391 1.37-.412.701-.296 1.051-1.435 1.051-3.419V5.318c0-1.984-.35-3.123-1.051-3.419-.043-.021-.499-.159-1.37-.412-.51-.126-.754-.295-.733-.507.021-.254.191-.379.509-.379h9.334c2.209 0 3.992.454 5.351 1.361 1.55 1.012 2.326 2.511 2.326 4.494zM41.876 22.631c-.022.254-.192.38-.51.38h-6.88c-.319 0-.489-.126-.51-.38-.021-.168.223-.317.733-.443.658-.147 1.115-.305 1.37-.474s.393-.633.414-1.393V3.704c0-.569-.053-.944-.16-1.124s-.425-.269-.955-.269c-.808 0-1.211-.127-1.211-.38 0-.274.255-.464.764-.57A24.67 24.67 0 0 0 38.563.317c.148-.043.266-.064.35-.064.212 0 .34.122.382.364s.064.755.064 1.535v16.142c0 2.132.138 3.271.414 3.418.149.085.606.221 1.37.412.51.148.753.316.733.506zM51.273 18.784v-3.528c-1.572.294-2.75.651-3.535 1.071-1.274.715-1.911 1.701-1.911 2.961 0 .672.196 1.213.589 1.622s.929.614 1.609.614c.849 0 1.603-.263 2.262-.787s.987-1.176.987-1.953zm5.829 2.043c-.573 1.625-1.571 2.437-2.994 2.437-1.529 0-2.464-.769-2.803-2.311-1.615 1.541-3.25 2.311-4.906 2.311-1.062 0-1.901-.305-2.516-.915s-.924-1.442-.924-2.495c0-1.916 1.04-3.347 3.122-4.295 1.189-.526 2.92-.937 5.192-1.231.064-2-.096-3.295-.478-3.884-.318-.526-1.04-.778-2.166-.758-.935.021-1.551.317-1.848.887l-.445 1.582c-.212.57-.669.855-1.37.855-.935 0-1.401-.401-1.401-1.203 0-1.033.647-1.835 1.942-2.405.998-.422 2.124-.633 3.377-.633 3.441.021 5.161 1.2 5.161 3.537v7.799c0 1.137.318 1.695.955 1.673.425 0 .78-.226 1.067-.68.287-.453.494-.68.622-.68.127 0 .239.047.334.142s.122.185.079.269zM69.601 20.838c-1.381 1.787-3.079 2.679-5.096 2.679-2.103 0-3.78-.665-5.033-1.998-1.253-1.332-1.879-3.066-1.879-5.202s.696-3.933 2.087-5.392c1.39-1.458 3.158-2.178 5.303-2.157.977 0 1.933.211 2.868.633 1.168.528 1.751 1.223 1.751 2.089 0 .822-.425 1.234-1.274 1.234-.51 0-.908-.242-1.195-.728s-.557-.97-.812-1.456c-.382-.506-.914-.759-1.593-.759-1.402 0-2.463.677-3.185 2.03-.552 1.08-.828 2.392-.828 3.935 0 1.692.339 3.121 1.02 4.284.807 1.439 1.985 2.158 3.535 2.158.892 0 1.742-.32 2.548-.96.169-.15.69-.694 1.561-1.633.106-.107.202-.16.286-.16.192 0 .287.16.287.478s-.117.628-.351.926zM81.094 13.511c-.128-2.508-1.136-3.751-3.026-3.731-2.038.021-3.26 1.477-3.664 4.368h3.982c1.827 0 2.729-.213 2.708-.638zm3.026 1.333c0 .233-.117.37-.351.412h-9.492c-.021.296-.032.518-.032.665 0 1.731.318 3.133.955 4.21.807 1.329 2.017 1.994 3.632 1.994 1.061 0 1.964-.232 2.707-.696.382-.254.944-.77 1.688-1.551a.395.395 0 0 1 .286-.126c.276 0 .415.126.415.38a.56.56 0 0 1-.096.284c-1.211 2.047-3.122 3.06-5.734 3.039-2.082-.022-3.759-.691-5.033-2.01s-1.911-3.002-1.911-5.049c0-2.11.626-3.893 1.879-5.349 1.338-1.54 3.048-2.3 5.129-2.278 1.592 0 2.92.474 3.982 1.424 1.295 1.139 1.953 2.69 1.975 4.652zM102.787 2.058c0 .316-.111.596-.335.839s-.494.364-.813.364c-.509 0-.913-.369-1.21-1.108s-.69-1.108-1.178-1.108c-1.105 0-1.976.646-2.613 1.938-.233.445-.605 1.557-1.115 3.337l-.859 2.987h3.153c.276 0 .415.131.415.391 0 .435-.234.653-.702.653h-3.12L91.224 22.28c-.744 2.777-1.476 4.829-2.198 6.154C87.708 30.811 86.063 32 84.087 32c-.743 0-1.401-.211-1.975-.633s-.86-.982-.86-1.678c0-.949.43-1.424 1.289-1.424.588 0 .955.232 1.101.696.042.168.063.622.063 1.361 0 .485.224.728.671.728.896 0 1.685-.801 2.367-2.402.299-.695.672-1.886 1.119-3.571l3.903-14.727h-3.313c-.191 0-.287-.12-.287-.359 0-.457.202-.685.606-.685h3.185c.848-2.722 1.677-4.716 2.483-5.982C95.82 1.108 97.529 0 99.568 0c.744 0 1.433.159 2.07.474.765.38 1.147.908 1.147 1.583zM105.847 12.186c0-1.731-.584-2.596-1.752-2.596-1.338 0-2.57 1.404-3.694 4.21-.957 2.385-1.434 4.379-1.434 5.982 0 1.836.626 2.754 1.88 2.754 1.316 0 2.527-1.424 3.631-4.273.913-2.405 1.37-4.431 1.37-6.077zm2.325 1.677c0 2.195-.657 4.273-1.975 6.235-1.486 2.215-3.281 3.324-5.384 3.324-1.38 0-2.442-.549-3.185-1.647-.68-.949-1.02-2.13-1.02-3.545 0-2.173.669-4.261 2.007-6.266 1.508-2.237 3.302-3.355 5.383-3.355 1.381 0 2.442.549 3.186 1.645.658.972.987 2.174.987 3.609zM121.071 10.35c0 .38-.111.728-.335 1.045-.222.316-.515.474-.876.474s-.637-.221-.828-.665c-.192-.443-.446-.665-.764-.665-1.169 0-3.08 4.157-5.734 12.47h-2.485c.637-2.131 1.274-4.273 1.911-6.425.998-3.397 1.497-5.307 1.497-5.729 0-.358-.159-.538-.477-.538-.573 0-1.115.348-1.625 1.045-.169.212-.509.791-1.018 1.741-.128.253-.308.38-.542.38-.319 0-.478-.127-.478-.38l.031-.127c.276-1.054.818-2.014 1.625-2.88.912-.95 1.879-1.424 2.898-1.424 1.125 0 1.688.644 1.688 1.931 0 .401-.074.897-.222 1.487a55.55 55.55 0 0 0-.415 1.488c1.614-3.27 3.133-4.906 4.555-4.906.468 0 .85.164 1.148.491s.446.722.446 1.186zM150.153 22.631c-.02.254-.191.38-.509.38h-8.41c-.319 0-.489-.126-.509-.38-.022-.21.223-.379.732-.506.87-.254 1.327-.391 1.37-.412.701-.295 1.051-1.434 1.051-3.418V3.356L135.659 22.6c-.189.443-.339.665-.445.665s-.285-.285-.541-.854l-7.072-16.143c-.382-.865-.765-1.593-1.147-2.184l.192 14.212c.021 1.013.064 1.699.128 2.058.148.696.457 1.15.924 1.361.042.021.499.158 1.369.412.509.126.754.295.733.506-.022.254-.191.38-.511.38h-6.816c-.318 0-.489-.126-.509-.38-.022-.21.222-.379.733-.506.87-.254 1.327-.391 1.37-.412.466-.21.775-.686.923-1.425.085-.358.128-1.023.128-1.994l.159-15.573c-.34-.273-.839-.548-1.497-.823a24.305 24.305 0 0 1-1.37-.412c-.51-.127-.754-.295-.733-.507.02-.254.191-.379.509-.379h3.822c1.444.022 2.272.09 2.485.206.211.117.531.67.956 1.662l6.785 15.794 7.327-17.187c.127-.317.413-.475.859-.475h5.225c.319 0 .489.126.509.379.02.212-.223.38-.732.507-.872.254-1.327.391-1.37.412-.701.296-1.052 1.436-1.052 3.419v12.977c0 1.984.351 3.123 1.052 3.419.042.021.498.158 1.37.412.509.126.753.295.732.506zM162.322 16.158c0-1.756-.288-3.194-.861-4.316-.742-1.459-1.901-2.188-3.471-2.188-1.572 0-2.729.751-3.471 2.253-.573 1.121-.86 2.548-.86 4.283 0 1.692.287 3.099.86 4.219.764 1.439 1.921 2.158 3.471 2.158 1.571 0 2.729-.719 3.471-2.158.573-1.121.861-2.538.861-4.252zm3.057-.19c0 2.157-.7 3.954-2.102 5.393s-3.186 2.157-5.352 2.157-3.918-.677-5.254-2.03c-1.34-1.354-2.008-3.119-2.008-5.297 0-2.157.701-3.934 2.103-5.33 1.4-1.396 3.186-2.092 5.352-2.092 2.058 0 3.785.687 5.176 2.061 1.39 1.374 2.085 3.087 2.085 5.138zM192.87 22.632c-.022.253-.192.379-.511.379h-6.88c-.319 0-.489-.126-.509-.379-.02-.168.223-.316.732-.443.658-.147 1.12-.309 1.386-.488.265-.179.398-1.311.398-3.395v-4.104c0-1.285-.159-2.221-.477-2.811-.425-.8-1.243-1.2-2.454-1.2-1.019 0-1.891.311-2.611.932-.723.621-1.083 1.384-1.083 2.289v4.893c.02 1.263.031 1.957.031 2.084.044.758.17 1.2.383 1.326.211.127.669.274 1.37.442.509.126.753.284.733.474-.022.253-.192.379-.509.379h-6.881c-.319 0-.489-.126-.509-.379-.022-.168.223-.316.732-.443.658-.147 1.119-.309 1.386-.488.265-.179.398-1.311.398-3.395v-4.104c0-1.285-.159-2.221-.479-2.811-.424-.8-1.242-1.2-2.452-1.2-1.02 0-1.889.311-2.611.932s-1.083 1.384-1.083 2.289v4.893c0 2.126.137 3.263.413 3.41.148.084.604.221 1.37.41.509.147.754.316.733.505-.023.253-.192.379-.509.379h-6.881c-.319 0-.489-.126-.509-.38-.022-.168.233-.305.763-.412.659-.126 1.116-.3 1.371-.522s.383-1.356.383-3.403v-6.045c0-.57-.052-.944-.16-1.124-.106-.179-.425-.269-.956-.269-.806 0-1.21-.126-1.21-.379 0-.274.253-.465.763-.57a24.29 24.29 0 0 0 3.626-1.045c.192-.042.319-.063.383-.063.191 0 .307.138.351.412.019.19.041.728.063 1.614.466-.602 1.149-1.09 2.052-1.464a7.196 7.196 0 0 1 2.783-.562c2.207 0 3.585.813 4.137 2.438 1.272-1.625 3.053-2.438 5.344-2.438 1.74 0 2.938.474 3.596 1.422.721 1.032 1.08 2.653 1.08 4.863v3.222c0 1.2.012 1.895.032 2.084.044.759.17 1.2.383 1.327s.669.274 1.371.442c.508.126.753.284.732.474zM195.718 21.203a.735.735 0 0 0-.26-.036h-.109v.493h.175c.104 0 .184-.021.243-.063s.088-.108.088-.201c0-.092-.046-.157-.138-.193zm-.815 1.363v-1.698l.475.001.353.003c.134.01.247.039.337.088.152.083.228.218.228.405 0 .143-.04.246-.12.309a.55.55 0 0 1-.296.114.571.571 0 0 1 .242.098c.101.081.151.208.151.381v.151a.289.289 0 0 0 .017.1l.015.048h-.428a1.252 1.252 0 0 1-.028-.235.732.732 0 0 0-.028-.207.206.206 0 0 0-.125-.125.488.488 0 0 0-.152-.027l-.099-.006h-.095v.601h-.447zm-.23-1.739a1.22 1.22 0 0 0-.369.887c0 .355.125.656.375.904.248.248.548.372.9.372.349 0 .649-.125.897-.374.248-.251.372-.552.372-.902a1.22 1.22 0 0 0-.371-.887 1.213 1.213 0 0 0-.899-.382c-.355 0-.657.128-.906.382zm1.985 1.986c-.3.288-.659.432-1.079.432-.434 0-.799-.147-1.097-.443a1.475 1.475 0 0 1-.445-1.089c0-.448.161-.82.481-1.116a1.517 1.517 0 0 1 1.061-.416c.425 0 .788.15 1.089.449s.452.66.452 1.082c0 .435-.154.801-.462 1.099z"/></symbol><symbol id="client6" viewBox="0 0 64 32"><path d="M44.576 10.459c.235 0 .466-.015.693-.045l8.852 12.876a5.23 5.23 0 1 0 1.992-1.389L47.615 9.486a5.23 5.23 0 1 0-5.923.106l-8.42 12.212a5.236 5.236 0 0 0-3.087-.063L21.809 9.592a5.23 5.23 0 1 0-5.94-.118L7.256 21.948a5.23 5.23 0 1 0 2.013 1.502l8.963-13.037a5.28 5.28 0 0 0 1.158.025l8.671 12.504a5.23 5.23 0 1 0 7.277.144l8.771-12.649c.153.014.309.02.466.02z"/></symbol><symbol id="dribbble" viewBox="0 0 32 32"><path d="M16 29.333C8.648 29.333 2.667 23.352 2.667 16S8.648 2.667 16 2.667 29.333 8.648 29.333 16 23.352 29.333 16 29.333zm11.245-11.508c-.39-.123-3.525-1.058-7.094-.487 1.49 4.093 2.096 7.427 2.212 8.12a11.41 11.41 0 0 0 4.882-7.633zm-6.796 8.676c-.169-.999-.831-4.481-2.43-8.636l-.075.025c-6.424 2.238-8.73 6.693-8.934 7.112a11.37 11.37 0 0 0 11.439 1.499zm-12.91-2.869c.258-.442 3.384-5.617 9.257-7.515.148-.048.298-.093.449-.135a38.269 38.269 0 0 0-.923-1.933C10.635 15.751 5.116 15.68 4.617 15.67c-.003.116-.006.231-.006.348a11.345 11.345 0 0 0 2.928 7.615zm-2.687-9.947c.509.007 5.202.027 10.529-1.388a72.912 72.912 0 0 0-4.222-6.587 11.43 11.43 0 0 0-6.306 7.974zm8.479-8.74a60.766 60.766 0 0 1 4.25 6.667c4.05-1.518 5.764-3.822 5.969-4.114-1.371-1.218-3.017-2.086-4.796-2.53s-3.64-.452-5.423-.023zm11.485 3.87c-.24.325-2.148 2.771-6.359 4.49a35.574 35.574 0 0 1 1.001 2.238c3.789-.477 7.555.287 7.93.367a11.33 11.33 0 0 0-2.572-7.094z"/></symbol><symbol id="linkedin" viewBox="0 0 32 32"><path d="M26.2 4H5.8C4.84 4 4 4.724 4 5.688v20.623c0 .965.84 1.688 1.8 1.688h20.4c.96 0 1.8-.724 1.8-1.688V5.688C28 4.844 27.16 4 26.2 4zM11.08 24.623h-3.6V13.166h3.6v11.457zm-1.8-13.146c-1.2 0-2.04-.965-2.04-2.05s.96-2.05 2.04-2.05 2.04.965 2.04 2.05c.12 1.206-.84 2.05-2.04 2.05zM24.4 24.623h-3.6v-5.548c0-1.327 0-3.015-1.8-3.015s-2.16 1.447-2.16 3.015v5.668h-3.6V13.286h3.36v1.568c.48-.965 1.68-1.809 3.36-1.809 3.6 0 4.32 2.412 4.32 5.427v6.151h.12z"/></symbol><symbol id="logo" viewBox="0 0 105 32"><path d="M6.48 31.6H0V0h7.24c1.493 0 2.707.08 3.64.24.96.133 1.707.427 2.24.88s.893 1.107 1.08 1.96c.213.827.32 1.947.32 3.36v3.28c0 .827-.093 1.507-.28 2.04s-.427.96-.72 1.28c-.267.32-.56.56-.88.72-.32.133-.613.227-.88.28v.16c.4.107.76.267 1.08.48.347.187.64.48.88.88s.427.933.56 1.6c.16.64.24 1.467.24 2.48V31.6H8v-14c0-.347-.04-.573-.12-.68-.08-.133-.293-.2-.64-.2h-.76V31.6zm0-19.96h.76c.347 0 .56-.053.64-.16.08-.133.12-.373.12-.72V6.44c0-.347-.04-.573-.12-.68-.08-.133-.293-.2-.64-.2h-.76v6.08zm23.222 15.28c0 1.12-.093 2.013-.28 2.68-.16.667-.48 1.187-.96 1.56-.453.347-1.093.573-1.92.68-.8.107-1.853.16-3.16.16-1.28 0-2.333-.053-3.16-.16s-1.467-.333-1.92-.68c-.453-.373-.773-.893-.96-1.56-.16-.667-.24-1.56-.24-2.68v-14.6c0-1.12.08-2.013.24-2.68.187-.667.507-1.173.96-1.52.453-.373 1.093-.613 1.92-.72s1.88-.16 3.16-.16c1.307 0 2.36.053 3.16.16.827.107 1.467.347 1.92.72.48.347.8.853.96 1.52.187.667.28 1.56.28 2.68v14.6zm-7.04-1.12c0 .347.04.587.12.72.08.107.28.16.6.16.347 0 .56-.053.64-.16.08-.133.12-.373.12-.72V13.44c0-.347-.04-.573-.12-.68-.08-.133-.293-.2-.64-.2-.32 0-.52.067-.6.2-.08.107-.12.333-.12.68V25.8zM38.298 0v8.72c.347-.48.773-.813 1.28-1 .533-.187 1.187-.28 1.96-.28s1.4.093 1.88.28c.48.16.84.427 1.08.8.267.373.44.88.52 1.52.107.613.16 1.373.16 2.28v14.6c0 .933-.053 1.72-.16 2.36-.08.613-.253 1.107-.52 1.48s-.653.64-1.16.8c-.507.16-1.16.24-1.96.24-.907 0-1.64-.093-2.2-.28-.56-.213-.987-.547-1.28-1v1.08h-5.32V0h5.72zm1.32 13.44c0-.32-.04-.547-.12-.68-.053-.133-.227-.2-.52-.2-.267 0-.467.053-.6.16-.107.08-.187.213-.24.4v13a.989.989 0 0 0 .24.44c.133.08.333.12.6.12.293 0 .467-.067.52-.2.08-.133.12-.36.12-.68V13.44zm14.189-9.28h-5.68V0h5.68v4.16zm0 27.44h-5.68V7.64h5.68V31.6zm16.264 0h-5.76V13.44c0-.32-.04-.547-.12-.68-.054-.133-.227-.2-.52-.2-.267 0-.467.053-.6.16-.107.08-.2.213-.28.4V31.6h-5.72V7.64h5.32v1.08c.293-.453.72-.773 1.28-.96.56-.213 1.293-.32 2.2-.32.8 0 1.466.08 2 .24.56.16 1 .427 1.32.8s.546.88.68 1.52c.133.613.2 1.387.2 2.32V31.6zm8.854 0h-5.8v-5.64h5.8v5.64zM104.573 0l-3.28 31.6h-8.16l-1.08-22.92h-.16l-1.32 22.92h-8.28L79.853 0h6.52l.68 22.16h.16L88.173 0h8l.68 22.16h.16l1-22.16h6.56z"/></symbol><symbol id="motion-design" viewBox="0 0 32 32"><path stroke-width="2" d="M31 16c0 8.284-6.716 15-15 15S1 24.284 1 16C1 7.716 7.716 1 16 1s15 6.716 15 15z"/><path d="m21 16-7.5 4.33v-8.66L21 16z"/></symbol><symbol id="photography" viewBox="0 0 32 32"><path d="M29.828 8.236H26.9l-.673-3.034a2.794 2.794 0 0 0-2.746-2.201H13.317c-1.33 0-2.459.905-2.746 2.201l-.673 3.034h-.695V6.941c0-.73-.595-1.323-1.325-1.323H3.592c-.731 0-1.325.594-1.325 1.323v1.295h-.094a2.173 2.173 0 0 0-2.172 2.169v14.688c0 1.196.975 2.169 2.172 2.169h10.075c1.773 1.147 3.886 1.814 6.152 1.814s4.378-.667 6.151-1.814h5.278a2.173 2.173 0 0 0 2.172-2.169V10.405a2.173 2.173 0 0 0-2.172-2.169zM11.79 5.471c.16-.72.787-1.223 1.526-1.223H23.48c.739 0 1.366.503 1.526 1.223l.613 2.765h-1.07c-1.773-1.147-3.886-1.814-6.151-1.814s-4.378.667-6.152 1.814h-1.07l.613-2.765zm-8.274 1.47c0-.042.034-.075.075-.075h4.286c.042 0 .075.034.075.075v1.295H3.515V6.941zm1.503 19.072v-6.777a.624.624 0 0 0-1.25 0v6.777H2.172a.922.922 0 0 1-.922-.921V10.404c0-.508.414-.921.922-.921h8.477c-2.212 2.068-3.597 5.008-3.597 8.265s1.385 6.197 3.597 8.265H5.018zm19.15 0a10.083 10.083 0 0 1-11.542 0c-2.613-1.823-4.325-4.848-4.325-8.265s1.712-6.441 4.325-8.265a10.083 10.083 0 0 1 11.542 0c2.613 1.823 4.325 4.848 4.325 8.265s-1.712 6.441-4.325 8.265zm6.581-.921a.923.923 0 0 1-.922.921h-3.68c2.212-2.068 3.597-5.008 3.597-8.265s-1.385-6.197-3.597-8.265h3.68c.509 0 .922.413.922.921v14.688z"/><path d="M18.37 10.111c-4.248 0-7.704 3.456-7.704 7.704s3.456 7.704 7.704 7.704c.619 0 1.235-.074 1.831-.219a.586.586 0 1 0-.278-1.14 6.537 6.537 0 0 1-8.083-6.344 6.537 6.537 0 0 1 6.53-6.53 6.537 6.537 0 0 1 6.53 6.53 6.488 6.488 0 0 1-1.121 3.659.586.586 0 1 0 .972.659 7.662 7.662 0 0 0 1.323-4.318c0-4.248-3.456-7.704-7.704-7.704zM4.741 11.296c-1.307 0-2.37 1.063-2.37 2.37s1.063 2.37 2.37 2.37c1.307 0 2.37-1.063 2.37-2.37s-1.063-2.37-2.37-2.37zm0 3.468a1.098 1.098 0 0 1 0-2.194 1.098 1.098 0 0 1 0 2.194z"/><path d="M23.692 23.625a.644.644 0 0 0-.089-.213.532.532 0 0 0-.163-.164.595.595 0 0 0-.658 0c-.032.022-.062.047-.09.074s-.052.057-.073.09a.625.625 0 0 0-.089.213.571.571 0 0 0 .089.445.532.532 0 0 0 .163.163.595.595 0 0 0 .748-.073.597.597 0 0 0 .162-.535z"/></symbol><symbol id="product-design" viewBox="0 0 32 32"><path d="M30.222 23.111v7.111H17.778v-7.111h12.444zm0-21.333V16H17.778V1.778h12.444zM10.667 16H1.778v14.222h8.889V16zm0-14.222v7.111H1.778V1.778h8.889zM17.778 0C16.796 0 16 .796 16 1.778V16c0 .982.796 1.778 1.778 1.778h12.444c.982 0 1.778-.796 1.778-1.778V1.778C32 .796 31.204 0 30.222 0H17.778zm0 21.333c-.982 0-1.778.796-1.778 1.778v7.111c0 .982.796 1.778 1.778 1.778h12.444c.982 0 1.778-.796 1.778-1.778v-7.111c0-.982-.796-1.778-1.778-1.778H17.778zM0 16c0-.982.796-1.778 1.778-1.778h8.889c.982 0 1.778.796 1.778 1.778v14.222c0 .982-.796 1.778-1.778 1.778H1.778A1.778 1.778 0 0 1 0 30.222V16zM1.778 0C.796 0 0 .796 0 1.778v7.111c0 .982.796 1.778 1.778 1.778h8.889c.982 0 1.778-.796 1.778-1.778V1.778C12.445.796 11.649 0 10.667 0H1.778z"/></symbol><symbol id="twitter" viewBox="0 0 32 32"><path d="M29.333 9.163c-.92.394-1.97.657-3.153.788 1.051-.657 1.97-1.708 2.365-2.89-1.051.657-2.233 1.051-3.415 1.314-.92-1.051-2.365-1.708-3.941-1.708-3.021 0-5.386 2.365-5.386 5.255 0 .394 0 .788.131 1.182-4.466-.263-8.407-2.365-11.166-5.517a4.74 4.74 0 0 0-.788 2.627c0 1.839.92 3.415 2.365 4.466-.92 0-1.708-.263-2.496-.657v.131c0 2.627 1.839 4.729 4.335 5.255-.394.131-.92.131-1.445.131-.394 0-.657 0-1.051-.131.657 2.102 2.627 3.678 4.992 3.678-1.839 1.445-4.204 2.233-6.699 2.233-.394 0-.92 0-1.314-.131 2.365 1.576 5.255 2.365 8.276 2.365 9.852 0 15.369-8.144 15.369-15.107v-.657c1.445-.657 2.365-1.576 3.021-2.627z"/></symbol><symbol id="visual-design" viewBox="0 0 32 32"><path d="m17.221 1.2 13.578 13.578 1.2-1.2L18.421 0l-1.2 1.2zM19.234 7.601a2.546 2.546 0 0 0-2.803-.54L7.008 11.1a4.227 4.227 0 0 0-2.352 2.56 469.703 469.703 0 0 0-2.981 9.346A130.81 130.81 0 0 0 .5 27.045c-.148.552-.27 1.036-.355 1.427-.079.364-.144.723-.144.981v.352l2.194 2.194h.352c.259 0 .617-.065.981-.144.391-.085.875-.206 1.427-.355 1.105-.297 2.51-.709 4.039-1.175a467.62 467.62 0 0 0 9.346-2.981 4.23 4.23 0 0 0 2.56-2.352l4.039-9.423a2.546 2.546 0 0 0-.54-2.803l-5.164-5.164zm-2.135 1.021a.848.848 0 0 1 .934.18l5.164 5.164a.848.848 0 0 1 .18.934l-4.039 9.424a2.528 2.528 0 0 1-1.531 1.408 467.251 467.251 0 0 1-9.31 2.97c-1.522.464-2.906.87-3.984 1.16-.539.145-.994.258-1.347.335l-.207.043 8.671-8.672a2.547 2.547 0 0 0 2.898-4.098 2.546 2.546 0 0 0-4.098 2.898L1.758 29.04c.012-.063.027-.132.043-.207.077-.353.19-.808.335-1.347a129.78 129.78 0 0 1 1.16-3.984 467.251 467.251 0 0 1 2.97-9.31 2.528 2.528 0 0 1 1.408-1.531l9.424-4.039z"/></symbol></defs></svg>